<svg width="64" height="64" viewBox="0 0 64 64" fill="none" xmlns="http://www.w3.org/2000/svg">
<path d="M0 14C0 6.26802 6.26801 0 14 0H49.9931C57.725 0 63.9931 6.26801 63.9931 14V49.9931C63.9931 57.725 57.725 63.9931 49.9931 63.9931H14C6.26802 63.9931 0 57.725 0 49.9931V14Z" fill="#4A7C59" fill-opacity="0.35"/>
<path d="M31.9965 45.3284C39.3595 45.3284 45.3284 39.3596 45.3284 31.9966C45.3284 24.6336 39.3595 18.6647 31.9965 18.6647C24.6335 18.6647 18.6646 24.6336 18.6646 31.9966C18.6646 39.3596 24.6335 45.3284 31.9965 45.3284Z" stroke="#4A7C59" stroke-width="2.66638" stroke-linecap="round" stroke-linejoin="round"/>
<path d="M27.997 31.9966L30.6633 34.663L35.9961 29.3302" stroke="#4A7C59" stroke-width="2.66638" stroke-linecap="round" stroke-linejoin="round"/>
</svg>
