<svg width="48" height="48" viewBox="0 0 48 48" fill="none" xmlns="http://www.w3.org/2000/svg">
<path d="M0 10C0 4.47716 4.47715 0 10 0H37.9948C43.5176 0 47.9948 4.47715 47.9948 10V37.9948C47.9948 43.5176 43.5176 47.9948 37.9948 47.9948H10C4.47716 47.9948 0 43.5176 0 37.9948V10Z" fill="#4A7C59" fill-opacity="0.1"/>
<path d="M26.9921 23.9974L17.6219 33.3676C17.4249 33.5646 17.1911 33.7209 16.9338 33.8276C16.6765 33.9342 16.4007 33.9891 16.1221 33.9891C15.5596 33.9892 15.0201 33.7659 14.6222 33.3682C14.2244 32.9704 14.0008 32.431 14.0007 31.8684C14.0006 31.3059 14.224 30.7664 14.6217 30.3685L23.993 20.9982" stroke="#4A7C59" stroke-width="1.99942" stroke-linecap="round" stroke-linejoin="round"/>
<path d="M29.9915 26.9965L33.9903 22.9977" stroke="#4A7C59" stroke-width="1.99942" stroke-linecap="round" stroke-linejoin="round"/>
<path d="M33.4903 23.4975L31.5768 21.5841C31.2018 21.2092 30.9911 20.7007 30.991 20.1705V19.8266C30.9909 19.2964 30.7802 18.7879 30.4052 18.413L28.7487 16.7565C27.6241 15.6321 26.0991 15.0003 24.5089 15H20.9939L22.2365 16.2426C23.3611 17.3674 23.993 18.8928 23.993 20.4834V21.998L25.9924 23.9974H27.1641C27.6943 23.9975 28.2028 24.2082 28.5777 24.5832L30.4911 26.4967" stroke="#4A7C59" stroke-width="1.99942" stroke-linecap="round" stroke-linejoin="round"/>
</svg>
