<svg width="48" height="48" viewBox="0 0 48 48" fill="none" xmlns="http://www.w3.org/2000/svg">
<path d="M0 10C0 4.47716 4.47715 0 10 0H37.9948C43.5176 0 47.9948 4.47715 47.9948 10V37.9948C47.9948 43.5176 43.5176 47.9948 37.9948 47.9948H10C4.47716 47.9948 0 43.5176 0 37.9948V10Z" fill="#4A7C59" fill-opacity="0.1"/>
<path d="M21.9937 21.998V16.9994C21.9937 16.7343 22.099 16.48 22.2865 16.2925C22.4739 16.105 22.7282 15.9997 22.9934 15.9997H24.9928C25.2579 15.9997 25.5122 16.105 25.6997 16.2925C25.8872 16.48 25.9925 16.7343 25.9925 16.9994V21.998" stroke="#4A7C59" stroke-width="1.99942" stroke-linecap="round" stroke-linejoin="round"/>
<path d="M25.9927 17.9991C27.5835 17.9991 29.1092 18.6311 30.2341 19.756C31.359 20.8809 31.9909 22.4066 31.9909 23.9974V26.9965" stroke="#4A7C59" stroke-width="1.99942" stroke-linecap="round" stroke-linejoin="round"/>
<path d="M15.9956 26.9965V23.9974C15.9956 22.4066 16.6276 20.8809 17.7525 19.756C18.8773 18.6311 20.403 17.9991 21.9939 17.9991" stroke="#4A7C59" stroke-width="1.99942" stroke-linecap="round" stroke-linejoin="round"/>
<path d="M32.9906 26.9965H14.9958C14.4437 26.9965 13.9961 27.4441 13.9961 27.9962V29.9957C13.9961 30.5478 14.4437 30.9954 14.9958 30.9954H32.9906C33.5427 30.9954 33.9903 30.5478 33.9903 29.9957V27.9962C33.9903 27.4441 33.5427 26.9965 32.9906 26.9965Z" stroke="#4A7C59" stroke-width="1.99942" stroke-linecap="round" stroke-linejoin="round"/>
</svg>
