<svg width="24" height="24" viewBox="0 0 24 24" fill="none" xmlns="http://www.w3.org/2000/svg">
<path d="M9.99707 9.99717V4.99861C9.99707 4.73347 10.1024 4.47919 10.2899 4.29171C10.4774 4.10423 10.7316 3.9989 10.9968 3.9989H12.9962C13.2613 3.9989 13.5156 4.10423 13.7031 4.29171C13.8906 4.47919 13.9959 4.73347 13.9959 4.99861V9.99717" stroke="#4A7C59" stroke-width="1.99942" stroke-linecap="round" stroke-linejoin="round"/>
<path d="M13.9961 5.99829C15.5869 5.99829 17.1126 6.63025 18.2375 7.75514C19.3624 8.88003 19.9944 10.4057 19.9944 11.9966V14.9957" stroke="#4A7C59" stroke-width="1.99942" stroke-linecap="round" stroke-linejoin="round"/>
<path d="M3.99902 14.9957V11.9966C3.99902 10.4057 4.63098 8.88003 5.75587 7.75514C6.88077 6.63025 8.40645 5.99829 9.99729 5.99829" stroke="#4A7C59" stroke-width="1.99942" stroke-linecap="round" stroke-linejoin="round"/>
<path d="M20.994 14.9957H2.99922C2.4471 14.9957 1.99951 15.4433 1.99951 15.9954V17.9949C1.99951 18.547 2.4471 18.9946 2.99922 18.9946H20.994C21.5461 18.9946 21.9937 18.547 21.9937 17.9949V15.9954C21.9937 15.4433 21.5461 14.9957 20.994 14.9957Z" stroke="#4A7C59" stroke-width="1.99942" stroke-linecap="round" stroke-linejoin="round"/>
</svg>
