<svg width="64" height="64" viewBox="0 0 64 64" fill="none" xmlns="http://www.w3.org/2000/svg">
<path d="M0 31.9965C0 14.3253 14.3253 0 31.9965 0C49.6677 0 63.9931 14.3253 63.9931 31.9965C63.9931 49.6677 49.6677 63.9931 31.9965 63.9931C14.3253 63.9931 0 49.6677 0 31.9965Z" fill="#4A7C59" fill-opacity="0.1"/>
<path d="M29.3301 29.3302V22.6642C29.3301 22.3107 29.4705 21.9716 29.7206 21.7215C29.9706 21.4715 30.3097 21.3311 30.6633 21.3311H33.3296C33.6832 21.3311 34.0223 21.4715 34.2724 21.7215C34.5224 21.9716 34.6628 22.3107 34.6628 22.6642V29.3302" stroke="#4A7C59" stroke-width="2.66638" stroke-linecap="round" stroke-linejoin="round"/>
<path d="M34.6628 23.9973C36.7843 23.9973 38.819 24.8401 40.3191 26.3402C41.8192 27.8403 42.662 29.8749 42.662 31.9964V35.996" stroke="#4A7C59" stroke-width="2.66638" stroke-linecap="round" stroke-linejoin="round"/>
<path d="M21.3311 35.996V31.9964C21.3311 29.8749 22.1738 27.8403 23.6739 26.3402C25.1741 24.8401 27.2087 23.9973 29.3302 23.9973" stroke="#4A7C59" stroke-width="2.66638" stroke-linecap="round" stroke-linejoin="round"/>
<path d="M43.9951 35.9961H19.9977C19.2614 35.9961 18.6646 36.593 18.6646 37.3293V39.9957C18.6646 40.732 19.2614 41.3288 19.9977 41.3288H43.9951C44.7314 41.3288 45.3283 40.732 45.3283 39.9957V37.3293C45.3283 36.593 44.7314 35.9961 43.9951 35.9961Z" stroke="#4A7C59" stroke-width="2.66638" stroke-linecap="round" stroke-linejoin="round"/>
</svg>
