<svg width="64" height="64" viewBox="0 0 64 64" fill="none" xmlns="http://www.w3.org/2000/svg">
<path d="M0 31.9965C0 14.3253 14.3253 0 31.9965 0C49.6677 0 63.9931 14.3253 63.9931 31.9965C63.9931 49.6677 49.6677 63.9931 31.9965 63.9931C14.3253 63.9931 0 49.6677 0 31.9965Z" fill="#4A7C59" fill-opacity="0.1"/>
<path d="M35.9962 31.9966L23.5002 44.4926C23.2376 44.7553 22.9258 44.9637 22.5826 45.1059C22.2395 45.2481 21.8717 45.3214 21.5002 45.3214C20.75 45.3215 20.0305 45.0237 19.5 44.4933C18.9694 43.9629 18.6713 43.2435 18.6711 42.4933C18.671 41.7431 18.9689 41.0236 19.4993 40.493L31.9966 27.9971" stroke="#4A7C59" stroke-width="2.66638" stroke-linecap="round" stroke-linejoin="round"/>
<path d="M39.9956 35.9961L45.3284 30.6633" stroke="#4A7C59" stroke-width="2.66638" stroke-linecap="round" stroke-linejoin="round"/>
<path d="M44.6619 31.3299L42.1102 28.7782C41.6101 28.2783 41.3291 27.6002 41.329 26.8931V26.4344C41.3288 25.7273 41.0478 25.0492 40.5477 24.5493L38.3386 22.3402C36.8389 20.8408 34.8052 19.9983 32.6846 19.9978H27.9971L29.6542 21.655C31.154 23.155 31.9965 25.1892 31.9966 27.3103V29.3301L34.663 31.9965H36.2255C36.9326 31.9967 37.6107 32.2777 38.1106 32.7777L40.6624 35.3295" stroke="#4A7C59" stroke-width="2.66638" stroke-linecap="round" stroke-linejoin="round"/>
</svg>
