<svg width="64" height="64" viewBox="0 0 64 64" fill="none" xmlns="http://www.w3.org/2000/svg">
<path d="M0 14C0 6.26802 6.26801 0 14 0H49.9931C57.725 0 63.9931 6.26801 63.9931 14V49.9931C63.9931 57.725 57.725 63.9931 49.9931 63.9931H14C6.26802 63.9931 0 57.725 0 49.9931V14Z" fill="#4A7C59" fill-opacity="0.25"/>
<path d="M30.686 19.7499C30.7431 19.4441 30.9054 19.1679 31.1447 18.9691C31.3841 18.7703 31.6854 18.6615 31.9965 18.6615C32.3076 18.6615 32.609 18.7703 32.8483 18.9691C33.0876 19.1679 33.2499 19.4441 33.307 19.7499L34.7082 27.1598C34.8077 27.6866 35.0638 28.1711 35.4428 28.5502C35.8219 28.9293 36.3065 29.1854 36.8333 29.2849L44.2432 30.6861C44.549 30.7432 44.8252 30.9055 45.024 31.1448C45.2228 31.3841 45.3316 31.6855 45.3316 31.9966C45.3316 32.3077 45.2228 32.609 45.024 32.8484C44.8252 33.0877 44.549 33.25 44.2432 33.3071L36.8333 34.7083C36.3065 34.8078 35.8219 35.0638 35.4428 35.4429C35.0638 35.822 34.8077 36.3066 34.7082 36.8334L33.307 44.2432C33.2499 44.5491 33.0876 44.8253 32.8483 45.0241C32.609 45.2228 32.3076 45.3317 31.9965 45.3317C31.6854 45.3317 31.3841 45.2228 31.1447 45.0241C30.9054 44.8253 30.7431 44.5491 30.686 44.2432L29.2848 36.8334C29.1853 36.3066 28.9293 35.822 28.5502 35.4429C28.1711 35.0638 27.6865 34.8078 27.1597 34.7083L19.7498 33.3071C19.444 33.25 19.1678 33.0877 18.969 32.8484C18.7702 32.609 18.6614 32.3077 18.6614 31.9966C18.6614 31.6855 18.7702 31.3841 18.969 31.1448C19.1678 30.9055 19.444 30.7432 19.7498 30.6861L27.1597 29.2849C27.6865 29.1854 28.1711 28.9293 28.5502 28.5502C28.9293 28.1711 29.1853 27.6866 29.2848 27.1598L30.686 19.7499Z" stroke="#4A7C59" stroke-width="2.66638" stroke-linecap="round" stroke-linejoin="round"/>
<path d="M42.662 18.6647V23.9974" stroke="#4A7C59" stroke-width="2.66638" stroke-linecap="round" stroke-linejoin="round"/>
<path d="M45.3284 21.3311H39.9956" stroke="#4A7C59" stroke-width="2.66638" stroke-linecap="round" stroke-linejoin="round"/>
<path d="M21.331 45.3284C22.8036 45.3284 23.9974 44.1346 23.9974 42.662C23.9974 41.1894 22.8036 39.9957 21.331 39.9957C19.8584 39.9957 18.6646 41.1894 18.6646 42.662C18.6646 44.1346 19.8584 45.3284 21.331 45.3284Z" stroke="#4A7C59" stroke-width="2.66638" stroke-linecap="round" stroke-linejoin="round"/>
</svg>
