<svg width="64" height="64" viewBox="0 0 64 64" fill="none" xmlns="http://www.w3.org/2000/svg">
<path d="M0 14C0 6.26802 6.26801 0 14 0H49.9931C57.725 0 63.9931 6.26801 63.9931 14V49.9931C63.9931 57.725 57.725 63.9931 49.9931 63.9931H14C6.26802 63.9931 0 57.725 0 49.9931V14Z" fill="#4A7C59" fill-opacity="0.25"/>
<path d="M35.9961 43.9953V33.3298C35.9961 32.9762 35.8556 32.6371 35.6056 32.3871C35.3556 32.137 35.0165 31.9966 34.6629 31.9966H29.3301C28.9766 31.9966 28.6375 32.137 28.3874 32.3871C28.1374 32.6371 27.9969 32.9762 27.9969 33.3298V43.9953" stroke="#4A7C59" stroke-width="2.66638" stroke-linecap="round" stroke-linejoin="round"/>
<path d="M19.9978 29.3302C19.9977 28.9423 20.0822 28.5591 20.2455 28.2072C20.4087 27.8554 20.6468 27.5434 20.943 27.293L30.2754 19.2939C30.7566 18.8872 31.3664 18.664 31.9965 18.664C32.6266 18.664 33.2364 18.8872 33.7176 19.2939L43.05 27.293C43.3462 27.5434 43.5843 27.8554 43.7475 28.2072C43.9108 28.5591 43.9953 28.9423 43.9952 29.3302V41.3288C43.9952 42.036 43.7143 42.7142 43.2142 43.2143C42.7142 43.7143 42.036 43.9952 41.3288 43.9952H22.6642C21.957 43.9952 21.2788 43.7143 20.7788 43.2143C20.2787 42.7142 19.9978 42.036 19.9978 41.3288V29.3302Z" stroke="#4A7C59" stroke-width="2.66638" stroke-linecap="round" stroke-linejoin="round"/>
</svg>
