<svg width="64" height="64" viewBox="0 0 64 64" fill="none" xmlns="http://www.w3.org/2000/svg">
<path d="M0 31.9965C0 14.3253 14.3253 0 31.9965 0C49.6677 0 63.9931 14.3253 63.9931 31.9965C63.9931 49.6677 49.6677 63.9931 31.9965 63.9931C14.3253 63.9931 0 49.6677 0 31.9965Z" fill="#4A7C59" fill-opacity="0.1"/>
<path d="M42.662 29.3301C42.662 35.9867 35.2775 42.9193 32.7978 45.0604C32.5668 45.2341 32.2856 45.328 31.9965 45.328C31.7075 45.328 31.4263 45.2341 31.1953 45.0604C28.7156 42.9193 21.331 35.9867 21.331 29.3301C21.331 26.5014 22.4547 23.7886 24.4549 21.7884C26.4551 19.7882 29.1679 18.6646 31.9965 18.6646C34.8252 18.6646 37.538 19.7882 39.5382 21.7884C41.5384 23.7886 42.662 26.5014 42.662 29.3301Z" stroke="#4A7C59" stroke-width="2.66638" stroke-linecap="round" stroke-linejoin="round"/>
<path d="M31.9965 33.3297C34.2054 33.3297 35.9961 31.539 35.9961 29.3301C35.9961 27.1212 34.2054 25.3306 31.9965 25.3306C29.7876 25.3306 27.9969 27.1212 27.9969 29.3301C27.9969 31.539 29.7876 33.3297 31.9965 33.3297Z" stroke="#4A7C59" stroke-width="2.66638" stroke-linecap="round" stroke-linejoin="round"/>
</svg>
