<svg width="64" height="64" viewBox="0 0 64 64" fill="none" xmlns="http://www.w3.org/2000/svg">
<path d="M0 31.9965C0 14.3253 14.3253 0 31.9965 0C49.6677 0 63.9931 14.3253 63.9931 31.9965C63.9931 49.6677 49.6677 63.9931 31.9965 63.9931C14.3253 63.9931 0 49.6677 0 31.9965Z" fill="#4A7C59" fill-opacity="0.1"/>
<path d="M31.9965 45.3283C39.3595 45.3283 45.3284 39.3594 45.3284 31.9964C45.3284 24.6334 39.3595 18.6646 31.9965 18.6646C24.6335 18.6646 18.6646 24.6334 18.6646 31.9964C18.6646 39.3594 24.6335 45.3283 31.9965 45.3283Z" stroke="#4A7C59" stroke-width="2.66638" stroke-linecap="round" stroke-linejoin="round"/>
<path d="M27.9969 31.9965L30.6633 34.6628L35.9961 29.3301" stroke="#4A7C59" stroke-width="2.66638" stroke-linecap="round" stroke-linejoin="round"/>
</svg>
