<svg width="64" height="64" viewBox="0 0 64 64" fill="none" xmlns="http://www.w3.org/2000/svg">
<path d="M0 31.9965C0 14.3253 14.3253 0 31.9965 0C49.6677 0 63.9931 14.3253 63.9931 31.9965C63.9931 49.6677 49.6677 63.9931 31.9965 63.9931C14.3253 63.9931 0 49.6677 0 31.9965Z" fill="#4A7C59" fill-opacity="0.1"/>
<path d="M30.6858 19.7498C30.7429 19.444 30.9052 19.1677 31.1446 18.969C31.3839 18.7702 31.6852 18.6614 31.9963 18.6614C32.3075 18.6614 32.6088 18.7702 32.8481 18.969C33.0875 19.1677 33.2497 19.444 33.3069 19.7498L34.708 27.1596C34.8076 27.6865 35.0636 28.171 35.4427 28.5501C35.8218 28.9292 36.3063 29.1852 36.8331 29.2847L44.243 30.6859C44.5488 30.7431 44.8251 30.9053 45.0238 31.1447C45.2226 31.384 45.3314 31.6853 45.3314 31.9965C45.3314 32.3076 45.2226 32.6089 45.0238 32.8482C44.8251 33.0876 44.5488 33.2499 44.243 33.307L36.8331 34.7082C36.3063 34.8077 35.8218 35.0637 35.4427 35.4428C35.0636 35.8219 34.8076 36.3065 34.708 36.8333L33.3069 44.2431C33.2497 44.549 33.0875 44.8252 32.8481 45.0239C32.6088 45.2227 32.3075 45.3315 31.9963 45.3315C31.6852 45.3315 31.3839 45.2227 31.1446 45.0239C30.9052 44.8252 30.7429 44.549 30.6858 44.2431L29.2846 36.8333C29.1851 36.3065 28.9291 35.8219 28.55 35.4428C28.1709 35.0637 27.6863 34.8077 27.1595 34.7082L19.7497 33.307C19.4438 33.2499 19.1676 33.0876 18.9688 32.8482C18.7701 32.6089 18.6613 32.3076 18.6613 31.9965C18.6613 31.6853 18.7701 31.384 18.9688 31.1447C19.1676 30.9053 19.4438 30.7431 19.7497 30.6859L27.1595 29.2847C27.6863 29.1852 28.1709 28.9292 28.55 28.5501C28.9291 28.171 29.1851 27.6865 29.2846 27.1596L30.6858 19.7498Z" stroke="#4A7C59" stroke-width="2.66638" stroke-linecap="round" stroke-linejoin="round"/>
<path d="M42.662 18.6646V23.9973" stroke="#4A7C59" stroke-width="2.66638" stroke-linecap="round" stroke-linejoin="round"/>
<path d="M45.3284 21.3311H39.9956" stroke="#4A7C59" stroke-width="2.66638" stroke-linecap="round" stroke-linejoin="round"/>
<path d="M21.3309 45.3284C22.8035 45.3284 23.9973 44.1346 23.9973 42.662C23.9973 41.1894 22.8035 39.9956 21.3309 39.9956C19.8583 39.9956 18.6646 41.1894 18.6646 42.662C18.6646 44.1346 19.8583 45.3284 21.3309 45.3284Z" stroke="#4A7C59" stroke-width="2.66638" stroke-linecap="round" stroke-linejoin="round"/>
</svg>
