<svg width="16" height="16" viewBox="0 0 16 16" fill="none" xmlns="http://www.w3.org/2000/svg">
<g clip-path="url(#clip0_1_191)">
<path d="M13.3319 6.66601C13.3319 9.99431 9.63962 13.4606 8.39976 14.5312C8.28425 14.618 8.14365 14.665 7.99914 14.665C7.85462 14.665 7.71402 14.618 7.59851 14.5312C6.35865 13.4606 2.66638 9.99431 2.66638 6.66601C2.66638 5.25167 3.22822 3.89527 4.22831 2.89518C5.2284 1.89509 6.5848 1.33325 7.99914 1.33325C9.41347 1.33325 10.7699 1.89509 11.77 2.89518C12.77 3.89527 13.3319 5.25167 13.3319 6.66601Z" stroke="white" stroke-width="1.33319" stroke-linecap="round" stroke-linejoin="round"/>
<path d="M7.99911 8.66583C9.10356 8.66583 9.99889 7.77049 9.99889 6.66604C9.99889 5.56159 9.10356 4.66626 7.99911 4.66626C6.89466 4.66626 5.99933 5.56159 5.99933 6.66604C5.99933 7.77049 6.89466 8.66583 7.99911 8.66583Z" stroke="white" stroke-width="1.33319" stroke-linecap="round" stroke-linejoin="round"/>
</g>
<defs>
<clipPath id="clip0_1_191">
<rect width="15.9983" height="15.9983" fill="white"/>
</clipPath>
</defs>
</svg>
