<svg width="16" height="16" viewBox="0 0 16 16" fill="none" xmlns="http://www.w3.org/2000/svg">
<g clip-path="url(#clip0_1_285)">
<path d="M9.22027 11.044C9.35794 11.1072 9.51304 11.1216 9.66002 11.0849C9.807 11.0482 9.93709 10.9625 10.0289 10.842L10.2655 10.532C10.3897 10.3664 10.5507 10.232 10.7358 10.1395C10.9209 10.0469 11.1251 9.99873 11.332 9.99873H13.3318C13.6854 9.99873 14.0245 10.1392 14.2745 10.3892C14.5246 10.6392 14.665 10.9783 14.665 11.3319V13.3317C14.665 13.6853 14.5246 14.0244 14.2745 14.2744C14.0245 14.5244 13.6854 14.6649 13.3318 14.6649C10.1496 14.6649 7.09766 13.4008 4.84747 11.1506C2.59728 8.90037 1.33313 5.84845 1.33313 2.6662C1.33313 2.31261 1.47359 1.97351 1.72361 1.72349C1.97363 1.47347 2.31273 1.33301 2.66632 1.33301H4.6661C5.01969 1.33301 5.35879 1.47347 5.60881 1.72349C5.85883 1.97351 5.99929 2.31261 5.99929 2.6662V4.66598C5.99929 4.87295 5.9511 5.07708 5.85854 5.2622C5.76598 5.44732 5.63159 5.60835 5.46601 5.73253L5.15405 5.96651C5.03167 6.05995 4.94542 6.19287 4.90994 6.3427C4.87445 6.49253 4.89193 6.65002 4.9594 6.78842C5.87043 8.63879 7.36876 10.1353 9.22027 11.044Z" stroke="#D1D5DC" stroke-width="1.33319" stroke-linecap="round" stroke-linejoin="round"/>
</g>
<defs>
<clipPath id="clip0_1_285">
<rect width="15.9983" height="15.9983" fill="white"/>
</clipPath>
</defs>
</svg>
