<svg width="16" height="16" viewBox="0 0 16 16" fill="none" xmlns="http://www.w3.org/2000/svg">
<g clip-path="url(#clip0_1_333)">
<path d="M9.22027 11.0441C9.35794 11.1074 9.51304 11.1218 9.66002 11.0851C9.807 11.0484 9.93709 10.9627 10.0289 10.8422L10.2655 10.5322C10.3897 10.3666 10.5507 10.2322 10.7358 10.1397C10.9209 10.0471 11.1251 9.99892 11.332 9.99892H13.3318C13.6854 9.99892 14.0245 10.1394 14.2745 10.3894C14.5246 10.6394 14.665 10.9785 14.665 11.3321V13.3319C14.665 13.6855 14.5246 14.0246 14.2745 14.2746C14.0245 14.5246 13.6854 14.6651 13.3318 14.6651C10.1496 14.6651 7.09766 13.4009 4.84747 11.1507C2.59728 8.90055 1.33313 5.84863 1.33313 2.66638C1.33313 2.31279 1.47359 1.97369 1.72361 1.72367C1.97363 1.47365 2.31273 1.33319 2.66632 1.33319H4.6661C5.01969 1.33319 5.35879 1.47365 5.60881 1.72367C5.85883 1.97369 5.99929 2.31279 5.99929 2.66638V4.66616C5.99929 4.87313 5.9511 5.07726 5.85854 5.26238C5.76598 5.4475 5.63159 5.60853 5.46601 5.73271L5.15405 5.96669C5.03167 6.06013 4.94542 6.19305 4.90994 6.34288C4.87445 6.49271 4.89193 6.6502 4.9594 6.7886C5.87043 8.63897 7.36876 10.1354 9.22027 11.0441Z" stroke="#364153" stroke-width="1.33319" stroke-linecap="round" stroke-linejoin="round"/>
</g>
<defs>
<clipPath id="clip0_1_333">
<rect width="15.9983" height="15.9983" fill="white"/>
</clipPath>
</defs>
</svg>
