<svg width="133" height="31" viewBox="0 0 133 31" fill="none" xmlns="http://www.w3.org/2000/svg">
<path d="M1.29119 21V7.90909H6.30256C7.24858 7.90909 8.0348 8.05824 8.66122 8.35653C9.2919 8.65057 9.76278 9.05327 10.0739 9.56463C10.3892 10.076 10.5469 10.6555 10.5469 11.3033C10.5469 11.8359 10.4446 12.2919 10.2401 12.6712C10.0355 13.0462 9.76065 13.3509 9.41548 13.5852C9.07031 13.8196 8.68466 13.9879 8.25852 14.0902V14.218C8.72301 14.2436 9.16832 14.3864 9.59446 14.6463C10.0249 14.902 10.3764 15.2642 10.6491 15.733C10.9219 16.2017 11.0582 16.7685 11.0582 17.4332C11.0582 18.1108 10.8942 18.7202 10.5661 19.2614C10.2379 19.7983 9.74361 20.2223 9.0831 20.5334C8.42259 20.8445 7.59162 21 6.5902 21H1.29119ZM3.66264 19.0185H6.21307C7.07386 19.0185 7.69389 18.8544 8.07315 18.5263C8.45668 18.1939 8.64844 17.7678 8.64844 17.2479C8.64844 16.8601 8.55256 16.5107 8.3608 16.1996C8.16903 15.8842 7.89631 15.6371 7.54261 15.4581C7.18892 15.2749 6.76705 15.1832 6.27699 15.1832H3.66264V19.0185ZM3.66264 13.4766H6.00852C6.41761 13.4766 6.78622 13.402 7.11435 13.2528C7.44247 13.0994 7.70028 12.8842 7.88778 12.6072C8.07955 12.326 8.17543 11.9936 8.17543 11.6101C8.17543 11.103 7.99645 10.6854 7.63849 10.3572C7.2848 10.0291 6.75852 9.86506 6.05966 9.86506H3.66264V13.4766ZM12.5795 21V11.1818H14.8232V12.8182H14.9254C15.1044 12.2514 15.4112 11.8146 15.8459 11.5078C16.2848 11.1967 16.7855 11.0412 17.348 11.0412C17.4759 11.0412 17.6186 11.0476 17.7763 11.0604C17.9382 11.0689 18.0724 11.0838 18.179 11.1051V13.2337C18.081 13.1996 17.9254 13.1697 17.7124 13.1442C17.5036 13.1143 17.3011 13.0994 17.1051 13.0994C16.6832 13.0994 16.304 13.1911 15.9673 13.3743C15.6349 13.5533 15.3729 13.8026 15.1811 14.1222C14.9893 14.4418 14.8935 14.8104 14.8935 15.228V21H12.5795ZM25.5346 16.8707V11.1818H27.8485V21H25.6049V19.255H25.5027C25.2811 19.8047 24.9167 20.2543 24.4096 20.6037C23.9068 20.9531 23.2868 21.1278 22.5495 21.1278C21.9061 21.1278 21.3372 20.9851 20.8429 20.6996C20.3528 20.4098 19.9693 19.9901 19.6923 19.4403C19.4153 18.8864 19.2768 18.2173 19.2768 17.4332V11.1818H21.5907V17.0753C21.5907 17.6974 21.7612 18.1918 22.1021 18.5582C22.443 18.9247 22.8904 19.108 23.4444 19.108C23.7853 19.108 24.1156 19.0249 24.4352 18.8587C24.7548 18.6925 25.0169 18.4453 25.2214 18.1172C25.4302 17.7848 25.5346 17.3693 25.5346 16.8707ZM34.0712 21.1918C33.0911 21.1918 32.2495 20.9766 31.5463 20.5462C30.8475 20.1158 30.3084 19.5213 29.9292 18.7628C29.5542 18 29.3667 17.1222 29.3667 16.1293C29.3667 15.1321 29.5584 14.2521 29.9419 13.4893C30.3255 12.7223 30.8667 12.1257 31.5655 11.6996C32.2686 11.2692 33.0996 11.054 34.0584 11.054C34.8553 11.054 35.5605 11.201 36.1742 11.495C36.7921 11.7848 37.2843 12.196 37.6507 12.7287C38.0172 13.2571 38.226 13.875 38.2772 14.5824H36.0655C35.976 14.1094 35.763 13.7152 35.4263 13.3999C35.0939 13.0803 34.6486 12.9205 34.0904 12.9205C33.6174 12.9205 33.2019 13.0483 32.8439 13.304C32.486 13.5554 32.2069 13.9176 32.0066 14.3906C31.8105 14.8636 31.7125 15.4304 31.7125 16.0909C31.7125 16.7599 31.8105 17.3352 32.0066 17.8168C32.2026 18.294 32.4775 18.6626 32.8311 18.9226C33.1891 19.1783 33.6088 19.3061 34.0904 19.3061C34.4313 19.3061 34.736 19.2422 35.0044 19.1143C35.2772 18.9822 35.5051 18.7926 35.6884 18.5455C35.8716 18.2983 35.9973 17.9979 36.0655 17.6442H38.2772C38.2218 18.3388 38.0172 18.9545 37.6635 19.4915C37.3098 20.0241 36.8283 20.4418 36.2189 20.7443C35.6096 21.0426 34.8936 21.1918 34.0712 21.1918ZM41.8471 17.919L41.8407 15.1257H42.2115L45.7399 11.1818H48.4437L44.1035 16.0142H43.6241L41.8471 17.919ZM39.7377 21V7.90909H42.0517V21H39.7377ZM45.8997 21L42.7037 16.532L44.2633 14.902L48.6674 21H45.8997ZM53.4886 21.1918C52.5043 21.1918 51.6541 20.9872 50.9382 20.5781C50.2266 20.1648 49.679 19.581 49.2955 18.8267C48.9119 18.0682 48.7202 17.1754 48.7202 16.1484C48.7202 15.1385 48.9119 14.2521 49.2955 13.4893C49.6832 12.7223 50.2244 12.1257 50.919 11.6996C51.6136 11.2692 52.4297 11.054 53.3672 11.054C53.9723 11.054 54.5433 11.152 55.0803 11.348C55.6214 11.5398 56.0987 11.8381 56.5121 12.2429C56.9297 12.6477 57.2578 13.1634 57.4964 13.7898C57.7351 14.4119 57.8544 15.1534 57.8544 16.0142V16.7237H49.8068V15.1641H55.6364C55.6321 14.7209 55.5362 14.3267 55.3487 13.9815C55.1612 13.6321 54.8991 13.3572 54.5625 13.157C54.2301 12.9567 53.8423 12.8565 53.3991 12.8565C52.9261 12.8565 52.5107 12.9716 52.1527 13.2017C51.7947 13.4276 51.5156 13.7259 51.3153 14.0966C51.1193 14.4631 51.0192 14.8658 51.0149 15.3047V16.6662C51.0149 17.2372 51.1193 17.7273 51.3281 18.1364C51.5369 18.5412 51.8288 18.8523 52.2038 19.0696C52.5788 19.2827 53.0178 19.3892 53.5206 19.3892C53.8572 19.3892 54.1619 19.3423 54.4347 19.2486C54.7074 19.1506 54.9439 19.0078 55.1442 18.8203C55.3445 18.6328 55.4957 18.4006 55.598 18.1236L57.7585 18.3665C57.6222 18.9375 57.3622 19.4361 56.9787 19.8622C56.5994 20.2841 56.1136 20.6122 55.5213 20.8466C54.929 21.0767 54.2514 21.1918 53.4886 21.1918Z" fill="white"/>
<path d="M64.4509 24V10.9091H72.8373V12.897H66.8224V16.451H72.262V18.4389H66.8224V24H64.4509ZM76.77 10.9091V24H74.4561V10.9091H76.77ZM82.9926 24.1918C82.0338 24.1918 81.2029 23.9808 80.4997 23.5589C79.7966 23.1371 79.2512 22.5469 78.8634 21.7884C78.4798 21.0298 78.2881 20.1435 78.2881 19.1293C78.2881 18.1151 78.4798 17.2266 78.8634 16.4638C79.2512 15.701 79.7966 15.1087 80.4997 14.6868C81.2029 14.2649 82.0338 14.054 82.9926 14.054C83.9514 14.054 84.7824 14.2649 85.4855 14.6868C86.1887 15.1087 86.732 15.701 87.1155 16.4638C87.5033 17.2266 87.6972 18.1151 87.6972 19.1293C87.6972 20.1435 87.5033 21.0298 87.1155 21.7884C86.732 22.5469 86.1887 23.1371 85.4855 23.5589C84.7824 23.9808 83.9514 24.1918 82.9926 24.1918ZM83.0054 22.3381C83.5253 22.3381 83.96 22.1953 84.3094 21.9098C84.6588 21.62 84.9188 21.2322 85.0892 20.7464C85.2639 20.2607 85.3513 19.7195 85.3513 19.1229C85.3513 18.522 85.2639 17.9787 85.0892 17.4929C84.9188 17.0028 84.6588 16.6129 84.3094 16.3232C83.96 16.0334 83.5253 15.8885 83.0054 15.8885C82.4727 15.8885 82.0296 16.0334 81.6759 16.3232C81.3264 16.6129 81.0644 17.0028 80.8896 17.4929C80.7192 17.9787 80.634 18.522 80.634 19.1229C80.634 19.7195 80.7192 20.2607 80.8896 20.7464C81.0644 21.2322 81.3264 21.62 81.6759 21.9098C82.0296 22.1953 82.4727 22.3381 83.0054 22.3381ZM93.5044 24.1918C92.5455 24.1918 91.7146 23.9808 91.0115 23.5589C90.3083 23.1371 89.7629 22.5469 89.3751 21.7884C88.9916 21.0298 88.7998 20.1435 88.7998 19.1293C88.7998 18.1151 88.9916 17.2266 89.3751 16.4638C89.7629 15.701 90.3083 15.1087 91.0115 14.6868C91.7146 14.2649 92.5455 14.054 93.5044 14.054C94.4632 14.054 95.2941 14.2649 95.9972 14.6868C96.7004 15.1087 97.2437 15.701 97.6272 16.4638C98.015 17.2266 98.2089 18.1151 98.2089 19.1293C98.2089 20.1435 98.015 21.0298 97.6272 21.7884C97.2437 22.5469 96.7004 23.1371 95.9972 23.5589C95.2941 23.9808 94.4632 24.1918 93.5044 24.1918ZM93.5171 22.3381C94.037 22.3381 94.4717 22.1953 94.8211 21.9098C95.1705 21.62 95.4305 21.2322 95.6009 20.7464C95.7757 20.2607 95.863 19.7195 95.863 19.1229C95.863 18.522 95.7757 17.9787 95.6009 17.4929C95.4305 17.0028 95.1705 16.6129 94.8211 16.3232C94.4717 16.0334 94.037 15.8885 93.5171 15.8885C92.9845 15.8885 92.5413 16.0334 92.1876 16.3232C91.8382 16.6129 91.5761 17.0028 91.4014 17.4929C91.2309 17.9787 91.1457 18.522 91.1457 19.1229C91.1457 19.7195 91.2309 20.2607 91.4014 20.7464C91.5761 21.2322 91.8382 21.62 92.1876 21.9098C92.5413 22.1953 92.9845 22.3381 93.5171 22.3381ZM99.7334 24V14.1818H101.977V15.8182H102.079C102.258 15.2514 102.565 14.8146 103 14.5078C103.439 14.1967 103.939 14.0412 104.502 14.0412C104.63 14.0412 104.772 14.0476 104.93 14.0604C105.092 14.0689 105.226 14.0838 105.333 14.1051V16.2337C105.235 16.1996 105.079 16.1697 104.866 16.1442C104.657 16.1143 104.455 16.0994 104.259 16.0994C103.837 16.0994 103.458 16.1911 103.121 16.3743C102.789 16.5533 102.527 16.8026 102.335 17.1222C102.143 17.4418 102.047 17.8104 102.047 18.228V24H99.7334ZM106.431 24V14.1818H108.745V24H106.431ZM107.594 12.7884C107.228 12.7884 106.912 12.6669 106.648 12.424C106.384 12.1768 106.252 11.8807 106.252 11.5355C106.252 11.1861 106.384 10.8899 106.648 10.647C106.912 10.3999 107.228 10.2763 107.594 10.2763C107.965 10.2763 108.28 10.3999 108.54 10.647C108.804 10.8899 108.936 11.1861 108.936 11.5355C108.936 11.8807 108.804 12.1768 108.54 12.424C108.28 12.6669 107.965 12.7884 107.594 12.7884ZM112.998 18.2472V24H110.685V14.1818H112.896V15.8501H113.011C113.237 15.3004 113.597 14.8636 114.092 14.5398C114.59 14.2159 115.206 14.054 115.939 14.054C116.616 14.054 117.207 14.1989 117.709 14.4886C118.217 14.7784 118.609 15.1982 118.886 15.7479C119.167 16.2976 119.305 16.9645 119.301 17.7486V24H116.987V18.1065C116.987 17.4503 116.817 16.9368 116.476 16.5661C116.139 16.1953 115.672 16.0099 115.076 16.0099C114.671 16.0099 114.311 16.0994 113.996 16.2784C113.685 16.4531 113.44 16.7067 113.261 17.0391C113.086 17.3714 112.998 17.7741 112.998 18.2472ZM125.484 27.8864C124.653 27.8864 123.939 27.7734 123.342 27.5476C122.746 27.326 122.266 27.0277 121.904 26.6527C121.542 26.2777 121.291 25.8622 121.15 25.4062L123.234 24.9013C123.328 25.093 123.464 25.2827 123.643 25.4702C123.822 25.6619 124.063 25.8196 124.365 25.9432C124.672 26.071 125.058 26.1349 125.522 26.1349C126.178 26.1349 126.722 25.9751 127.152 25.6555C127.582 25.3402 127.798 24.8203 127.798 24.0959V22.2358H127.683C127.563 22.4744 127.389 22.7195 127.158 22.9709C126.933 23.2223 126.632 23.4332 126.257 23.6037C125.886 23.7741 125.42 23.8594 124.857 23.8594C124.103 23.8594 123.419 23.6825 122.805 23.3288C122.196 22.9709 121.71 22.4382 121.348 21.7308C120.99 21.0192 120.811 20.1286 120.811 19.0589C120.811 17.9808 120.99 17.071 121.348 16.3295C121.71 15.5838 122.198 15.0192 122.812 14.6357C123.426 14.2479 124.109 14.054 124.864 14.054C125.439 14.054 125.912 14.152 126.283 14.348C126.658 14.5398 126.956 14.772 127.178 15.0447C127.399 15.3132 127.568 15.5668 127.683 15.8054H127.81V14.1818H130.092V24.1598C130.092 24.9993 129.892 25.6939 129.492 26.2436C129.091 26.7933 128.543 27.2045 127.849 27.4773C127.154 27.75 126.366 27.8864 125.484 27.8864ZM125.503 22.044C125.993 22.044 126.411 21.9247 126.756 21.6861C127.101 21.4474 127.363 21.1044 127.542 20.657C127.721 20.2095 127.81 19.6726 127.81 19.0462C127.81 18.4283 127.721 17.8871 127.542 17.4226C127.367 16.9581 127.107 16.598 126.762 16.3423C126.421 16.0824 126.002 15.9524 125.503 15.9524C124.987 15.9524 124.557 16.0866 124.212 16.3551C123.867 16.6236 123.607 16.9922 123.432 17.4609C123.257 17.9254 123.17 18.4538 123.17 19.0462C123.17 19.647 123.257 20.1733 123.432 20.625C123.611 21.0724 123.873 21.4219 124.218 21.6733C124.568 21.9205 124.996 22.044 125.503 22.044Z" fill="#5A9279"/>
</svg>
