<svg width="168" height="32" viewBox="0 0 168 32" fill="none" xmlns="http://www.w3.org/2000/svg">
<path d="M1.99893 24.6667V7.21212H8.68075C9.94212 7.21212 10.9904 7.41098 11.8256 7.80871C12.6665 8.20076 13.2944 8.73769 13.7092 9.41951C14.1296 10.1013 14.3398 10.8741 14.3398 11.7377C14.3398 12.4479 14.2035 13.0559 13.9308 13.5616C13.658 14.0616 13.2915 14.4678 12.8313 14.7803C12.3711 15.0928 11.8569 15.3172 11.2887 15.4536V15.6241C11.908 15.6581 12.5018 15.8485 13.07 16.1951C13.6438 16.536 14.1126 17.0189 14.4762 17.6439C14.8398 18.2689 15.0217 19.0246 15.0217 19.911C15.0217 20.8144 14.8029 21.6269 14.3654 22.3485C13.9279 23.0644 13.2688 23.6297 12.3881 24.0445C11.5075 24.4593 10.3995 24.6667 9.06428 24.6667H1.99893ZM5.16087 22.0246H8.56143C9.70916 22.0246 10.5359 21.8059 11.0415 21.3684C11.5529 20.9252 11.8086 20.357 11.8086 19.6638C11.8086 19.1468 11.6808 18.6809 11.4251 18.2661C11.1694 17.8456 10.8058 17.5161 10.3342 17.2775C9.86257 17.0331 9.30007 16.911 8.64666 16.911H5.16087V22.0246ZM5.16087 14.6354H8.28871C8.83416 14.6354 9.32564 14.536 9.76314 14.3371C10.2006 14.1326 10.5444 13.8456 10.7944 13.4763C11.0501 13.1013 11.1779 12.6581 11.1779 12.1468C11.1779 11.4706 10.9393 10.9138 10.462 10.4763C9.99041 10.0388 9.28871 9.82007 8.35689 9.82007H5.16087V14.6354ZM17.1063 24.6667V11.5758H20.0978V13.7576H20.2342C20.4728 13.0019 20.8819 12.4195 21.4614 12.0104C22.0467 11.5956 22.7143 11.3883 23.4643 11.3883C23.6347 11.3883 23.8251 11.3968 24.0353 11.4138C24.2512 11.4252 24.4302 11.4451 24.5722 11.4735V14.3116C24.4415 14.2661 24.2342 14.2263 23.9501 14.1922C23.6717 14.1525 23.4018 14.1326 23.1404 14.1326C22.5779 14.1326 22.0722 14.2547 21.6234 14.4991C21.1802 14.7377 20.8308 15.0701 20.5751 15.4962C20.3194 15.9223 20.1915 16.4138 20.1915 16.9706V24.6667H17.1063ZM34.436 19.161V11.5758H37.5212V24.6667H34.5298V22.34H34.3934C34.0979 23.0729 33.6121 23.6723 32.936 24.1383C32.2656 24.6042 31.4388 24.8371 30.4559 24.8371C29.5979 24.8371 28.8394 24.6468 28.1803 24.2661C27.5269 23.8797 27.0156 23.3201 26.6462 22.5871C26.2769 21.8485 26.0923 20.9564 26.0923 19.911V11.5758H29.1775V19.4337C29.1775 20.2633 29.4048 20.9223 29.8593 21.411C30.3138 21.8996 30.9104 22.1439 31.6491 22.1439C32.1036 22.1439 32.544 22.0331 32.9701 21.8116C33.3962 21.59 33.7457 21.2604 34.0184 20.8229C34.2968 20.3797 34.436 19.8258 34.436 19.161ZM45.8744 24.9223C44.5675 24.9223 43.4454 24.6354 42.5079 24.0616C41.5761 23.4877 40.8573 22.6951 40.3516 21.6837C39.8516 20.6667 39.6016 19.4962 39.6016 18.1723C39.6016 16.8428 39.8573 15.6695 40.3687 14.6525C40.88 13.6297 41.6016 12.8343 42.5335 12.2661C43.471 11.6922 44.5789 11.4053 45.8573 11.4053C46.9198 11.4053 47.8602 11.6013 48.6783 11.9934C49.5022 12.3797 50.1585 12.928 50.6471 13.6383C51.1357 14.3428 51.4141 15.1667 51.4823 16.1098H48.5335C48.4141 15.4792 48.13 14.9536 47.6812 14.5331C47.238 14.107 46.6442 13.8939 45.8999 13.8939C45.2692 13.8939 44.7153 14.0644 44.238 14.4053C43.7607 14.7405 43.3886 15.2235 43.1215 15.8542C42.8602 16.4848 42.7295 17.2405 42.7295 18.1212C42.7295 19.0133 42.8602 19.7803 43.1215 20.4223C43.3829 21.0587 43.7494 21.5502 44.221 21.8968C44.6982 22.2377 45.2579 22.4081 45.8999 22.4081C46.3545 22.4081 46.7607 22.3229 47.1187 22.1525C47.4823 21.9763 47.7863 21.7235 48.0306 21.3939C48.2749 21.0644 48.4425 20.6638 48.5335 20.1922H51.4823C51.4085 21.1184 51.1357 21.9394 50.6641 22.6553C50.1925 23.3655 49.5505 23.9223 48.738 24.3258C47.9255 24.7235 46.971 24.9223 45.8744 24.9223ZM56.2985 20.5587L56.29 16.8343H56.7843L61.4888 11.5758H65.094L59.307 18.0189H58.6678L56.2985 20.5587ZM53.486 24.6667V7.21212H56.5712V24.6667H53.486ZM61.7019 24.6667L57.4406 18.7093L59.5201 16.536L65.3923 24.6667H61.7019ZM71.8768 24.9223C70.5643 24.9223 69.4308 24.6496 68.4762 24.1042C67.5273 23.553 66.7972 22.7746 66.2859 21.7689C65.7745 20.7576 65.5188 19.5672 65.5188 18.1979C65.5188 16.8513 65.7745 15.6695 66.2859 14.6525C66.8029 13.6297 67.5245 12.8343 68.4506 12.2661C69.3768 11.6922 70.4648 11.4053 71.7148 11.4053C72.5217 11.4053 73.283 11.536 73.9989 11.7973C74.7205 12.053 75.3569 12.4508 75.908 12.9905C76.4648 13.5303 76.9023 14.2178 77.2205 15.053C77.5387 15.8826 77.6978 16.8712 77.6978 18.0189V18.965H66.9677V16.8854H74.7404C74.7347 16.2945 74.6069 15.7689 74.3569 15.3087C74.1069 14.8428 73.7575 14.4763 73.3086 14.2093C72.8654 13.9422 72.3484 13.8087 71.7575 13.8087C71.1268 13.8087 70.5728 13.9621 70.0955 14.2689C69.6183 14.5701 69.2461 14.9678 68.979 15.4621C68.7177 15.9508 68.5842 16.4877 68.5785 17.0729V18.8883C68.5785 19.6496 68.7177 20.303 68.9961 20.8485C69.2745 21.3883 69.6637 21.803 70.1637 22.0928C70.6637 22.3769 71.2489 22.5189 71.9194 22.5189C72.3683 22.5189 72.7745 22.4564 73.1381 22.3314C73.5018 22.2008 73.8171 22.0104 74.0842 21.7604C74.3512 21.5104 74.5529 21.2008 74.6893 20.8314L77.57 21.1553C77.3881 21.9167 77.0415 22.5814 76.5302 23.1496C76.0245 23.7121 75.3768 24.1496 74.587 24.4621C73.7972 24.7689 72.8938 24.9223 71.8768 24.9223Z" fill="#101828"/>
<path d="M79.3368 26.6667V9.21212H90.5186V11.8627H82.4987V16.6013H89.7515V19.2519H82.4987V26.6667H79.3368ZM95.8184 9.21212V26.6667H92.7332V9.21212H95.8184ZM104.172 26.9223C102.893 26.9223 101.785 26.6411 100.848 26.0786C99.9102 25.5161 99.1829 24.7292 98.6659 23.7178C98.1545 22.7064 97.8988 21.5246 97.8988 20.1723C97.8988 18.8201 98.1545 17.6354 98.6659 16.6184C99.1829 15.6013 99.9102 14.8116 100.848 14.2491C101.785 13.6866 102.893 13.4053 104.172 13.4053C105.45 13.4053 106.558 13.6866 107.495 14.2491C108.433 14.8116 109.157 15.6013 109.669 16.6184C110.186 17.6354 110.444 18.8201 110.444 20.1723C110.444 21.5246 110.186 22.7064 109.669 23.7178C109.157 24.7292 108.433 25.5161 107.495 26.0786C106.558 26.6411 105.45 26.9223 104.172 26.9223ZM104.189 24.4508C104.882 24.4508 105.461 24.2604 105.927 23.8797C106.393 23.4934 106.74 22.9763 106.967 22.3286C107.2 21.6809 107.316 20.9593 107.316 20.1638C107.316 19.3627 107.2 18.6383 106.967 17.9905C106.74 17.3371 106.393 16.8172 105.927 16.4309C105.461 16.0445 104.882 15.8513 104.189 15.8513C103.478 15.8513 102.887 16.0445 102.416 16.4309C101.95 16.8172 101.601 17.3371 101.368 17.9905C101.14 18.6383 101.027 19.3627 101.027 20.1638C101.027 20.9593 101.14 21.6809 101.368 22.3286C101.601 22.9763 101.95 23.4934 102.416 23.8797C102.887 24.2604 103.478 24.4508 104.189 24.4508ZM118.243 26.9223C116.965 26.9223 115.857 26.6411 114.92 26.0786C113.982 25.5161 113.255 24.7292 112.738 23.7178C112.226 22.7064 111.971 21.5246 111.971 20.1723C111.971 18.8201 112.226 17.6354 112.738 16.6184C113.255 15.6013 113.982 14.8116 114.92 14.2491C115.857 13.6866 116.965 13.4053 118.243 13.4053C119.522 13.4053 120.63 13.6866 121.567 14.2491C122.505 14.8116 123.229 15.6013 123.741 16.6184C124.258 17.6354 124.516 18.8201 124.516 20.1723C124.516 21.5246 124.258 22.7064 123.741 23.7178C123.229 24.7292 122.505 25.5161 121.567 26.0786C120.63 26.6411 119.522 26.9223 118.243 26.9223ZM118.26 24.4508C118.954 24.4508 119.533 24.2604 119.999 23.8797C120.465 23.4934 120.812 22.9763 121.039 22.3286C121.272 21.6809 121.388 20.9593 121.388 20.1638C121.388 19.3627 121.272 18.6383 121.039 17.9905C120.812 17.3371 120.465 16.8172 119.999 16.4309C119.533 16.0445 118.954 15.8513 118.26 15.8513C117.55 15.8513 116.959 16.0445 116.488 16.4309C116.022 16.8172 115.672 17.3371 115.439 17.9905C115.212 18.6383 115.099 19.3627 115.099 20.1638C115.099 20.9593 115.212 21.6809 115.439 22.3286C115.672 22.9763 116.022 23.4934 116.488 23.8797C116.959 24.2604 117.55 24.4508 118.26 24.4508ZM126.605 26.6667V13.5758H129.597V15.7576H129.733C129.972 15.0019 130.381 14.4195 130.96 14.0104C131.545 13.5956 132.213 13.3883 132.963 13.3883C133.134 13.3883 133.324 13.3968 133.534 13.4138C133.75 13.4252 133.929 13.4451 134.071 13.4735V16.3116C133.94 16.2661 133.733 16.2263 133.449 16.1922C133.17 16.1525 132.901 16.1326 132.639 16.1326C132.077 16.1326 131.571 16.2547 131.122 16.4991C130.679 16.7377 130.33 17.0701 130.074 17.4962C129.818 17.9223 129.69 18.4138 129.69 18.9706V26.6667H126.605ZM135.591 26.6667V13.5758H138.676V26.6667H135.591ZM137.142 11.7178C136.654 11.7178 136.233 11.5559 135.881 11.232C135.529 10.9025 135.352 10.5076 135.352 10.0473C135.352 9.58144 135.529 9.18655 135.881 8.86269C136.233 8.53314 136.654 8.36837 137.142 8.36837C137.636 8.36837 138.057 8.53314 138.404 8.86269C138.756 9.18655 138.932 9.58144 138.932 10.0473C138.932 10.5076 138.756 10.9025 138.404 11.232C138.057 11.5559 137.636 11.7178 137.142 11.7178ZM144.404 18.9962V26.6667H141.319V13.5758H144.268V15.8002H144.421C144.723 15.0672 145.203 14.4848 145.862 14.053C146.527 13.6212 147.348 13.4053 148.325 13.4053C149.228 13.4053 150.015 13.5985 150.686 13.9848C151.362 14.3712 151.885 14.9309 152.254 15.6638C152.629 16.3968 152.813 17.286 152.808 18.3314V26.6667H149.723V18.8087C149.723 17.9337 149.495 17.2491 149.041 16.7547C148.592 16.2604 147.97 16.0133 147.174 16.0133C146.635 16.0133 146.154 16.1326 145.734 16.3712C145.319 16.6042 144.992 16.9422 144.754 17.3854C144.521 17.8286 144.404 18.3655 144.404 18.9962ZM161.108 31.8485C160 31.8485 159.048 31.6979 158.253 31.3968C157.457 31.1013 156.818 30.7036 156.335 30.2036C155.852 29.7036 155.517 29.1496 155.329 28.5417L158.108 27.8684C158.233 28.1241 158.414 28.3769 158.653 28.6269C158.892 28.8826 159.213 29.0928 159.616 29.2576C160.025 29.428 160.539 29.5133 161.159 29.5133C162.034 29.5133 162.758 29.3002 163.332 28.8741C163.906 28.4536 164.193 27.7604 164.193 26.7945V24.3144H164.039C163.88 24.6326 163.647 24.9593 163.341 25.2945C163.039 25.6297 162.639 25.911 162.139 26.1383C161.645 26.3655 161.022 26.4792 160.272 26.4792C159.267 26.4792 158.355 26.2434 157.537 25.7718C156.724 25.2945 156.076 24.5843 155.593 23.6411C155.116 22.6922 154.878 21.5047 154.878 20.0786C154.878 18.6411 155.116 17.428 155.593 16.4394C156.076 15.4451 156.727 14.6922 157.545 14.1809C158.363 13.6638 159.275 13.4053 160.281 13.4053C161.048 13.4053 161.679 13.536 162.173 13.7973C162.673 14.053 163.071 14.3627 163.366 14.7263C163.662 15.0843 163.886 15.4223 164.039 15.7405H164.21V13.5758H167.253V26.8797C167.253 27.9991 166.985 28.9252 166.451 29.6581C165.917 30.3911 165.187 30.9394 164.261 31.303C163.335 31.6667 162.284 31.8485 161.108 31.8485ZM161.133 24.0587C161.787 24.0587 162.343 23.8996 162.804 23.5814C163.264 23.2633 163.613 22.8059 163.852 22.2093C164.091 21.6127 164.21 20.8968 164.21 20.0616C164.21 19.2377 164.091 18.5161 163.852 17.8968C163.619 17.2775 163.272 16.7973 162.812 16.4564C162.358 16.1098 161.798 15.9366 161.133 15.9366C160.446 15.9366 159.872 16.1155 159.412 16.4735C158.951 16.8314 158.605 17.3229 158.372 17.9479C158.139 18.5672 158.022 19.2718 158.022 20.0616C158.022 20.8627 158.139 21.5644 158.372 22.1667C158.61 22.7633 158.96 23.2292 159.42 23.5644C159.886 23.8939 160.457 24.0587 161.133 24.0587Z" fill="#4A7C59"/>
</svg>
